<svg xmlns="http://www.w3.org/2000/svg" xmlns:xlink="http://www.w3.org/1999/xlink" viewBox="0 0 1921.39 1046.59"><defs><style>.cls-14,.cls-15{opacity:.05}.cls-12,.cls-14{fill:none;stroke:#fff;stroke-miterlimit:10;stroke-width:.5px}.cls-12,.cls-13{opacity:.3}.cls-13,.cls-15{fill:#fff}</style><linearGradient id="linear-gradient" x1="35.18" y1="362.88" x2="337.18" y2="362.88" gradientUnits="userSpaceOnUse"><stop offset="0" stop-color="#000615"/><stop offset="1" stop-color="#f2f2f2"/></linearGradient><linearGradient id="linear-gradient-2" x1="-408.75" y1="342.25" x2="-116.75" y2="342.25" gradientTransform="matrix(-.09 -.7 -.39 .05 385.58 167.98)" gradientUnits="userSpaceOnUse"><stop offset="0" stop-color="#f2f2f2"/><stop offset="1" stop-color="#000615"/></linearGradient><linearGradient id="linear-gradient-3" x1="1203.66" y1="895.19" x2="1258.77" y2="743.79" gradientTransform="matrix(.99 -.16 .16 .99 -99.42 161.88)" xlink:href="#linear-gradient"/><linearGradient id="linear-gradient-4" x1="163.65" y1="810.2" x2="290.1" y2="659.5" gradientTransform="rotate(30.7 375.665 650.778)" gradientUnits="userSpaceOnUse"><stop offset="0" stop-color="#000615"/><stop offset=".18" stop-color="#030918"/><stop offset=".32" stop-color="#0c1220"/><stop offset=".44" stop-color="#1c222f"/><stop offset=".55" stop-color="#333844"/><stop offset=".65" stop-color="#50545e"/><stop offset=".75" stop-color="#74777f"/><stop offset=".85" stop-color="#9fa1a6"/><stop offset=".94" stop-color="#cfd0d2"/><stop offset="1" stop-color="#f2f2f2"/></linearGradient><linearGradient id="linear-gradient-5" x1="390.07" y1="289.04" x2="516.53" y2="138.34" gradientTransform="matrix(-1.45 -.55 .33 -.87 1138.32 1365.54)" gradientUnits="userSpaceOnUse"><stop offset="0" stop-color="#f2f2f2"/><stop offset=".18" stop-color="#abadb1"/><stop offset=".35" stop-color="#6e717a"/><stop offset=".51" stop-color="#3f434e"/><stop offset=".65" stop-color="#1c222f"/><stop offset=".76" stop-color="#080d1c"/><stop offset=".83" stop-color="#000615"/></linearGradient><linearGradient id="linear-gradient-6" x1="1156.36" y1="138.95" x2="1282.81" y2="-11.75" gradientTransform="matrix(-.53 1.76 -1.44 -.43 2401.45 -1564.02)" gradientUnits="userSpaceOnUse"><stop offset="0" stop-color="#f2f2f2"/><stop offset=".27" stop-color="#a1a3a8"/><stop offset=".53" stop-color="#5c6069"/><stop offset=".75" stop-color="#2a2f3c"/><stop offset=".91" stop-color="#0c1120"/><stop offset="1" stop-color="#000615"/></linearGradient><linearGradient id="linear-gradient-7" x1="416.93" y1="647.38" x2="466.95" y2="509.94" gradientTransform="matrix(.77 0 0 1.74 1015.27 -198.81)" gradientUnits="userSpaceOnUse"><stop offset="0" stop-color="#000615"/><stop offset=".16" stop-color="#030918"/><stop offset=".29" stop-color="#0e1321"/><stop offset=".41" stop-color="#1f2431"/><stop offset=".53" stop-color="#373c48"/><stop offset=".65" stop-color="#575b64"/><stop offset=".76" stop-color="#7e8188"/><stop offset=".86" stop-color="#acaeb2"/><stop offset=".97" stop-color="#e0e0e1"/><stop offset="1" stop-color="#f2f2f2"/></linearGradient><linearGradient id="linear-gradient-8" x1="542.05" y1="1648.2" x2="597.15" y2="1496.8" gradientTransform="matrix(.07 -1.19 1.28 .08 -310.91 672.04)" gradientUnits="userSpaceOnUse"><stop offset="0" stop-color="#000615"/><stop offset=".23" stop-color="#030817"/><stop offset=".37" stop-color="#0b111f"/><stop offset=".48" stop-color="#191f2c"/><stop offset=".58" stop-color="#2e323f"/><stop offset=".68" stop-color="#484c57"/><stop offset=".76" stop-color="#686c74"/><stop offset=".84" stop-color="#8f9197"/><stop offset=".92" stop-color="#bbbdc0"/><stop offset=".99" stop-color="#ededed"/><stop offset="1" stop-color="#f2f2f2"/></linearGradient><linearGradient id="linear-gradient-9" x1="-635.53" y1="1777.09" x2="-333.53" y2="1777.09" gradientTransform="matrix(.35 .57 -.49 .3 2647.73 665.85)" gradientUnits="userSpaceOnUse"><stop offset="0" stop-color="#f2f2f2"/><stop offset=".18" stop-color="#b7b8bc"/><stop offset=".4" stop-color="#777a81"/><stop offset=".59" stop-color="#434853"/><stop offset=".76" stop-color="#1f2431"/><stop offset=".9" stop-color="#080e1d"/><stop offset=".99" stop-color="#000615"/><stop offset="1" stop-color="#040a19"/><stop offset="1" stop-color="#080e1c"/></linearGradient><linearGradient id="linear-gradient-10" x1="730.33" y1="-1957.2" x2="1032.33" y2="-1957.2" gradientTransform="matrix(-.06 -.74 .7 -.06 1605.07 1311.53)" gradientUnits="userSpaceOnUse"><stop offset="0" stop-color="#f2f2f2"/><stop offset=".06" stop-color="#cdced0"/><stop offset=".15" stop-color="#9d9fa5"/><stop offset=".24" stop-color="#73767e"/><stop offset=".34" stop-color="#50545e"/><stop offset=".44" stop-color="#333743"/><stop offset=".55" stop-color="#1c212f"/><stop offset=".67" stop-color="#0c1220"/><stop offset=".8" stop-color="#030918"/><stop offset=".99" stop-color="#000615"/><stop offset="1" stop-color="#040a19"/><stop offset="1" stop-color="#080e1c"/></linearGradient><linearGradient id="linear-gradient-11" x1="323.36" y1="-704.77" x2="625.36" y2="-704.77" gradientTransform="matrix(.57 -.57 .5 .51 482.2 1492.46)" gradientUnits="userSpaceOnUse"><stop offset="0" stop-color="#080e1c"/><stop offset=".12" stop-color="#0c1220"/><stop offset=".25" stop-color="#1a1f2c"/><stop offset=".38" stop-color="#2f3440"/><stop offset=".52" stop-color="#4e525c"/><stop offset=".66" stop-color="#757980"/><stop offset=".81" stop-color="#a6a8ac"/><stop offset=".95" stop-color="#dededf"/><stop offset="1" stop-color="#f2f2f2"/></linearGradient></defs><g id="Layer_6" data-name="Layer 6"><path fill="url(#linear-gradient)" opacity=".1" d="M35.18 333.38l302-114-201 287-101-173z"/><path fill="url(#linear-gradient-2)" opacity=".1" d="M196.26 412.43l-7.35-135.61 185.25 181.95-177.9-46.34z"/><path fill="url(#linear-gradient-3)" opacity=".1" d="M1169.84 678.47l34.58 170.67 138.71-82.1-173.29-88.57z"/><path fill="url(#linear-gradient-4)" opacity=".1" d="M266.58 533.31L136.81 759.82l177.95-63.64-48.18-162.87z"/><path fill="url(#linear-gradient-5)" opacity=".1" d="M510.68 1044.88L589.2 816.1l-222.34 60.26 143.82 168.52z"/><path fill="url(#linear-gradient-6)" opacity=".1" d="M1853.96 605.02l-378.64-104.33 146.84 274.28 231.8-169.95z"/><path fill="url(#linear-gradient-7)" opacity=".1" d="M1307.78 634.93l-18.5 256.41 139.77-55.77-121.27-200.64z"/><path fill="url(#linear-gradient-8)" opacity=".05" d="M1597.37 177.69l222.93 4.79L1755.36 0l-157.99 177.69z"/><path fill="url(#linear-gradient-9)" opacity=".1" d="M1576.98 825.26l160.21 137.39-209.36-28.63 49.15-108.76z"/><path fill="url(#linear-gradient-10)" opacity=".1" d="M170.78 894.57L71.94 679.4l213.27 130.45-114.43 84.72z"/><path fill="url(#linear-gradient-11)" opacity=".1" d="M296.05 936.32l114.61-228.81L440.9 967.1l-144.85-30.78z"/></g><g id="Teia"><path class="cls-12" d="M1921.18 997.38l-99.32-24.11m99.32-86.89l-99.32 86.89m98.32-113.89l-95.45-111.8m-85 70.06l85-70.06m-43.55 297.8l40.68-72.11M1610.52 809.6l129.21 8.04m-18.95-135.53l18.95 135.53m-129.21-8.04l110.26-127.49m26.99 316.43l-65.47-11.48m35.61-64.32l29.86 75.8m-8.04-180.9l-21.82 105.1"/><circle class="cls-13" cx="1720.64" cy="682.25" r="4.45"/><circle class="cls-13" cx="1824.58" cy="747.72" r="4.45"/><circle class="cls-13" cx="1740.16" cy="816.64" r="4.45"/><circle class="cls-13" cx="1610.38" cy="809.75" r="4.45"/><circle class="cls-13" cx="1718.34" cy="922.88" r="4.45"/><circle class="cls-13" cx="1682.16" cy="987.2" r="4.45"/><circle class="cls-13" cx="1747.63" cy="998.68" r="4.45"/><circle class="cls-13" cx="1821.71" cy="973.42" r="4.45"/><path class="cls-12" d="M1821.57 973.56l17.8-120.6m-99.92-35.03l99.92 35.03"/><circle class="cls-13" cx="1839.51" cy="854.54" r="4.45"/><path class="cls-12" d="M1682.02 986.19l-67.19-50.53m-58.58 57.42l58.58-57.42m-49.39-65.47l49.39 65.47m-66.33-147.31l16.65 82.13"/><circle class="cls-13" cx="1565.01" cy="870.05" r="4.45"/><circle class="cls-13" cx="1556.97" cy="991.79" r="4.45"/><circle class="cls-13" cx="1614.97" cy="935.51" r="4.45"/><circle class="cls-13" cx="1548.35" cy="787.35" r="4.45"/><path class="cls-12" d="M1610.52 809.6l75.8 130.36"/><circle class="cls-13" cx="1686.76" cy="940.68" r="4.45"/><path class="cls-12" d="M1463.79 918.43l92.46 73.51m-92.75-73.22l24.12 78.1m68.34-4.6l77.53 19.53m-18.38-71.79l18.38 71.79m-76.95-19.53l-23.36 54.16"/><circle class="cls-13" cx="1633.92" cy="1013.62" r="4.45"/><circle class="cls-13" cx="1463.36" cy="918.28" r="4.45"/><circle class="cls-13" cx="1487.48" cy="996.39" r="4.45"/><path class="cls-12" d="M1633.78 1013.76l-56.6 31.62m104.84-53.44l-5.84 54.44m-212.62-127.77l58.39-197.15m-46.54-38.92l46.54 38.92m11.84-76.15l-11.84 76.15m-46.54-38.92l58.38-37.23m187 36.38l-132.84-22.85m-31.31 71.08l31.31-71.08"/><circle class="cls-13" cx="1475.25" cy="682.25" r="4.45"/><circle class="cls-13" cx="1522.64" cy="722.02" r="4.45"/><circle class="cls-13" cx="1533.64" cy="645.02" r="4.45"/><circle class="cls-13" cx="1588.64" cy="657.72" r="4.45"/><circle class="cls-13" cx="1558.18" cy="726.25" r="4.45"/><path class="cls-12" d="M1614.18 702l-56.69 24.54"/><circle class="cls-13" cx="1610.64" cy="701.72" r="4.45"/><path class="cls-12" d="M1720.37 682.11l77.85-140.46m-21.16 144.69l49.08 59.23m54.15-116.76l-103.23 57.53m116.77 44l-13.54-101.53m-198.42-123.12l115.92 35.54m-106.61 44.84l-9.31-80.38m-71.08 73.62l71.08-73.62m9.31 80.38l-80.39-6.76"/><circle class="cls-13" cx="1691.87" cy="586.64" r="4.45"/><circle class="cls-13" cx="1610.64" cy="579.02" r="4.45"/><circle class="cls-13" cx="1682.56" cy="506.26" r="4.45"/><circle class="cls-13" cx="1798.48" cy="541.79" r="4.45"/><circle class="cls-13" cx="1880.56" cy="628.95" r="4.45"/><circle class="cls-13" cx="1777.33" cy="686.49" r="4.45"/><circle class="cls-13" cx="1894.1" cy="732.18" r="4.45"/><path class="cls-12" d="M1491.91 822.57l-94.77-49.07m13.54 92.23l-13.54-92.23m-69.38-45.69l69.38 45.69m13.12 91.8l-64.31 27.08"/><circle class="cls-13" cx="1328.02" cy="727.95" r="4.45"/><circle class="cls-13" cx="1397.41" cy="773.64" r="4.45"/><circle class="cls-13" cx="1490.48" cy="821.87" r="4.45"/><circle class="cls-13" cx="1410.1" cy="864.18" r="4.45"/><circle class="cls-13" cx="1344.1" cy="892.95" r="4.45"/><path class="cls-12" d="M1765.64 902.54l55.85 71.07"/><circle class="cls-13" cx="1765.48" cy="903.1" r="4.45"/><path class="cls-12" d="M1404.33 1003.23l-38.07-38.93m44-99l-44 99"/><circle class="cls-13" cx="1366.95" cy="964.02" r="4.45"/><circle class="cls-13" cx="1404.18" cy="1002.95" r="4.45"/><path class="cls-12" d="M1856.18 515.84l24.54 108.31m-16.08-156.54l-8.46 48.23m52.46-32.15l-52.46 32.15m8.46-48.23l44 16.08"/><circle class="cls-13" cx="1856.02" cy="515.56" r="4.45"/><circle class="cls-13" cx="1864.48" cy="467.33" r="4.45"/><circle class="cls-13" cx="1907.64" cy="483.41" r="4.45"/></g><g id="Layer_3" data-name="Layer 3"><path class="cls-14" d="M1240.18 1045.38l-10.51-177.27m129.17-44.65l-128.57 45.24m123.81-161.91l4.76 116.67m-125-220.24l120.24 103.57m152.39-73.81l-152.39 73.81m101.2 20.24l-25.01-57.14m-20.23 86.9l45.24-29.76m36.9-188.1l14.29 94.05m53.57-22.62l-53.57 22.62m-14.29-94.05l67.86 71.43m52.38 55.95l-52.38-55.95m123.82-15.48l-71.44 71.43m-131.24 379.07l-65.19-143.34m-55.96-15.48l55.96 15.48m-11.91-64.29l13.1 67.86m-57.15-19.05l44.05-48.81m82.15-34.53l-82.15 34.53m115.48 27.38l-33.33-61.91m77.38-47.62l-44.05 109.53m83.34-60.72l-39.29-51.19m190.49 82.15l167.08 65.01m-99 145l99-127m-133.75 63.42l19.75 63.58m-57.85-342.16l4.77 132.15m16.66-169.06l-21.43 36.91m40.48-4.76l-40.48 4.76m21.43-36.91l19.05 32.15m131.37-36.08l-77.79 124.18m-4.77-164.3l4.77 164.3m-66.67-220.25l61.9 55.95m-61.9-183.34v127.39m-86.91-197.63l86.91 70.24m-145.25-103.57l58.34 33.33M1641 416.3l48.81-47.62m-58.34-33.33l9.53 80.95m-114.29 29.77l-34.53 92.86m-75-139.29l109.53 46.43m-371.45 142.86l78.58 14.29m0-28.58v28.58"/><circle class="cls-15" cx="1155.05" cy="588.53" r="6.26"/><circle class="cls-15" cx="1233.62" cy="574.25" r="6.26"/><circle class="cls-15" cx="1233.62" cy="602.82" r="6.26"/><circle class="cls-15" cx="1325.29" cy="681.4" r="6.26"/><circle class="cls-15" cx="1353.86" cy="705.21" r="6.26"/><circle class="cls-15" cx="1526.49" cy="448.05" r="6.26"/><circle class="cls-15" cx="1418.15" cy="400.43" r="6.26"/><circle class="cls-15" cx="1491.96" cy="539.72" r="6.26"/><circle class="cls-15" cx="1506.25" cy="632.58" r="6.26"/><circle class="cls-15" cx="1559.82" cy="609.96" r="6.26"/><circle class="cls-15" cx="1612.21" cy="664.73" r="6.26"/><circle class="cls-15" cx="1455.06" cy="727.83" r="6.26"/><circle class="cls-15" cx="1408.63" cy="755.21" r="6.26"/><circle class="cls-15" cx="1403.86" cy="839.73" r="6.26"/><circle class="cls-15" cx="1359.82" cy="886.17" r="6.26"/><circle class="cls-15" cx="1358.63" cy="823.07" r="6.26"/><circle class="cls-15" cx="1230.05" cy="868.31" r="6.26"/><circle class="cls-15" cx="1519.35" cy="864.74" r="6.26"/><circle class="cls-15" cx="1487.2" cy="804.02" r="6.26"/><circle class="cls-15" cx="1415.77" cy="901.64" r="6.26"/><circle class="cls-15" cx="1787.21" cy="982.6" r="6.26"/><circle class="cls-15" cx="1602.68" cy="804.02" r="6.26"/><circle class="cls-15" cx="1563.4" cy="755.21" r="6.26"/><circle class="cls-15" cx="1770.55" cy="665.92" r="6.26"/><circle class="cls-15" cx="1747.93" cy="702.82" r="6.26"/><circle class="cls-15" cx="1753.88" cy="834.97" r="6.26"/><circle class="cls-15" cx="1838.41" cy="621.87" r="6.26"/><circle class="cls-15" cx="1843.17" cy="782.59" r="6.26"/><circle class="cls-15" cx="1788.4" cy="696.87" r="6.26"/><circle class="cls-15" cx="1680.07" cy="598.06" r="6.26"/><circle class="cls-15" cx="1430.06" cy="669.49" r="6.26"/><circle class="cls-15" cx="1776.5" cy="438.53" r="6.26"/><circle class="cls-15" cx="1632.45" cy="336.14" r="6.26"/><circle class="cls-15" cx="1640.78" cy="415.91" r="6.26"/><circle class="cls-15" cx="1688.4" cy="369.48" r="6.26"/><circle class="cls-15" cx="1776.5" cy="565.91" r="6.26"/><path class="cls-14" d="M1849.93 505l-73.81 60.72"/><circle class="cls-15" cx="1851.5" cy="502.82" r="6.26"/></g><g id="Layer_4" data-name="Layer 4"><path class="cls-12" d="M446.18 1046.38l48.41-105.58"/><path class="cls-12" d="M66 1083.38c-2-9.38-5-17.38-6-26.38-1-15-8-29-8.44-44.12" transform="translate(.68 -37.12)"/><path class="cls-12" d="M159.82 952.13L52.24 975.76m181-130.26l-73.42 106.63m-94.94-98.56l94.94 98.56m73.42-106.63l-168.36 8.07m245.3 192.81l18.38-34.88m-72.58-11.68l27.2 46.56m-123.36-94.25l96.16 47.69"/><circle class="cls-13" cx="65.08" cy="853.55" r="4.45"/><circle class="cls-13" cx="52.44" cy="975.74" r="4.45"/><circle class="cls-13" cx="158.76" cy="951.85" r="4.45"/><circle class="cls-13" cx="233.44" cy="845.47" r="4.45"/><circle class="cls-13" cx="255.82" cy="1000.25" r="4.45"/><circle class="cls-13" cx="328.76" cy="1011.48" r="4.45"/><circle class="cls-13" cx="497.79" cy="937.77" r="4.45"/><path class="cls-12" d="M160.22 952.08l-32.04 94.3m199.88-35.63l1.71-84.06m81.33-10.65l-81.33 10.65m-21.03-79.27l21.03 79.27M254.8 783.58l54.34 63.79"/><circle class="cls-13" cx="308.89" cy="846.99" r="4.45"/><circle class="cls-13" cx="409.64" cy="915.81" r="4.45"/><circle class="cls-13" cx="329.56" cy="926.71" r="4.45"/><circle class="cls-13" cx="254.1" cy="782.85" r="4.45"/><path class="cls-12" d="M233.24 845.5l55.79 140.1"/><circle class="cls-13" cx="289.33" cy="986.38" r="4.45"/><path class="cls-12" d="M409.43 797.22l.77 118.11m-.37-118.16l46.57 67.18m-45.8 50.93l-32.48 73.06m-45.14-58.77l45.14 58.77m32.13-72.6l85.88 23.57"/><circle class="cls-13" cx="379.32" cy="989.83" r="4.45"/><circle class="cls-13" cx="409.58" cy="796.79" r="4.45"/><circle class="cls-13" cx="456.15" cy="863.97" r="4.45"/><path class="cls-12" d="M379.52 989.8l117.01-50.54m-163.95 75.03l51.6 32.09m25.53-249.23l-191.15-75.74m-1.91-60.64l1.91 60.64m-67.23-37.68l67.23 37.68m-1.91-60.64l-65.32 22.96M64.54 853.32l64.01-118.63m75.25 19.24l-75.25-19.24"/><circle class="cls-13" cx="216.53" cy="660.47" r="4.45"/><circle class="cls-13" cx="218.57" cy="722.3" r="4.45"/><circle class="cls-13" cx="151.2" cy="683.43" r="4.45"/><circle class="cls-13" cx="127.24" cy="734.54" r="4.45"/><circle class="cls-13" cx="199.97" cy="752.87" r="4.45"/><path class="cls-12" d="M146.32 781.97l54.3-29.47"/><circle class="cls-13" cx="148.28" cy="779.01" r="4.45"/><path class="cls-12" d="M64.46 890.37C43 887 22 883 1.47 880.26" transform="translate(.68 -37.12)"/><path class="cls-12" d="M33.47 900.46l16.32 75.17"/><path class="cls-12" d="M1.93 950.53l29-12.18 1.84-.77M6.91 808.12l-7.41-7.33m51.7-60.09C34 742 17 745-.22 746" transform="translate(.68 -37.12)"/><path class="cls-12" d="M7.59 771l44.28-67.42"/><circle class="cls-13" cx="7.6" cy="771.9" r="4.45"/><circle class="cls-13" cx="51.75" cy="703.28" r="4.45"/><circle class="cls-13" cx="33.42" cy="900.76" r="4.45"/><path class="cls-12" d="M316.65 760.18l19.88-104.85m64.21 67.57l-64.21-67.57m6.87-82.8l-6.87 82.8m64.14 66.98l61-33.89"/><circle class="cls-13" cx="343.35" cy="572.83" r="4.45"/><circle class="cls-13" cx="336.48" cy="655.62" r="4.45"/><circle class="cls-13" cx="316.98" cy="758.63" r="4.45"/><circle class="cls-13" cx="399.88" cy="721.49" r="4.45"/><circle class="cls-13" cx="463.25" cy="687.32" r="4.45"/><path class="cls-12" d="M210 1062c.89 7.19 3.7 13.88 5.05 21" transform="translate(.68 -37.12)"/><circle class="cls-13" cx="211.17" cy="1025.13" r="4.45"/><path class="cls-12" d="M512.85 802.77l-7.13-53.98m-105.05-26.48l105.05 26.48"/><circle class="cls-13" cx="505.07" cy="749.16" r="4.45"/><circle class="cls-13" cx="512.72" cy="802.48" r="4.45"/><path class="cls-12" d="M150.49 577.48l70.07 86.16M107.32 554.37l43.17 23.11m-57.68 21.44l57.68-21.44m-43.17-23.11l-14.51 44.55"/><circle class="cls-13" cx="150.37" cy="577.19" r="4.45"/><circle class="cls-13" cx="107.2" cy="554.08" r="4.45"/><circle class="cls-13" cx="93.21" cy="597.95" r="4.45"/></g><g id="Layer_5" data-name="Layer 5"><path class="cls-14" d="M504.4 661.96l112.31-71.55m-199.12-2.46l86.81 74.01m-93.93-228.89l7.12 154.88m-148.63 72.64l148.63-72.64m-45.46 89.99l-28.86-53.67m79.01 36.85l-50.15 16.82m-166.85-85.05l63.68 67.7m-49.69 27.54l49.69-27.54m-63.68-67.7l13.99 95.24m11.43 74l-11.43-74m-86.55 85.84l97.98-11.84m379.6 145.51l-79.96-154.37m21.85-52.34l-21.85 52.34m-42.24-47.92l44.27 50.99m19.82-55.41l-64.09 4.42m-76.07 42.33l76.07-42.33m-48.58 105.28l-27.49-62.95m-83.26 30.77l110.75 32.18m-96.92 27.45l-15.66-61.06"/><path class="cls-14" d="M274.55 1010.09C267 1033.49 261 1058 253 1083" transform="translate(.68 -37.12)"/><path class="cls-14" d="M176.51 889.63l98.71 83.34m-140-89.12l41.29 5.78m-28.06 28.24l28.06-28.24m-41.29-5.78l13.23 34.02M.18 992.38l183.68 19.8M60.44 909.45l123.42 102.73M54.76 828.13l5.68 81.32"/><path class="cls-14" d="M-.37 822.53C19 836 35 852 54.08 865.24" transform="translate(.68 -37.12)"/><path class="cls-14" d="M35.8 591.21l-9.55 64.94m66.04-8.8l-66.04 8.8m9.55-64.94l56.49 56.14m20.79-83.91l92.2 29.45m-61.85-141.64l-30.35 112.19m333.79-199.39l-36.4 69.02m-21.96-17.23l21.96 17.23"/><circle class="cls-15" cx="446.7" cy="363.65" r="6.12"/><circle class="cls-15" cx="388.34" cy="415.43" r="6.12"/><circle class="cls-15" cx="410.3" cy="432.66" r="6.12"/><circle class="cls-15" cx="415.42" cy="550.51" r="6.12"/><circle class="cls-15" cx="416.5" cy="586.83" r="6.12"/><circle class="cls-15" cx="114.74" cy="564.47" r="6.12"/><circle class="cls-15" cx="143.46" cy="452.48" r="6.12"/><circle class="cls-15" cx="206.02" cy="593.2" r="6.12"/><circle class="cls-15" cx="268.79" cy="660.18" r="6.12"/><circle class="cls-15" cx="219.1" cy="687.72" r="6.12"/><circle class="cls-15" cx="229.61" cy="761.01" r="6.12"/><circle class="cls-15" cx="372.87" cy="678.26" r="6.12"/><circle class="cls-15" cx="421.91" cy="659.08" r="6.12"/><circle class="cls-15" cx="489.76" cy="706.38" r="6.12"/><circle class="cls-15" cx="552.01" cy="700.52" r="6.12"/><circle class="cls-15" cx="504.23" cy="661.56" r="6.12"/><circle class="cls-15" cx="616.53" cy="590" r="6.12"/><circle class="cls-15" cx="439.35" cy="810.23" r="6.12"/><circle class="cls-15" cx="412.06" cy="748.91" r="6.12"/><circle class="cls-15" cx="530.17" cy="752.86" r="6.12"/><circle class="cls-15" cx="616.56" cy="907.57" r="6.12"/><circle class="cls-15" cx="342.42" cy="837.68" r="6.12"/><circle class="cls-15" cx="328.59" cy="778.05" r="6.12"/><circle class="cls-15" cx="135.05" cy="883.44" r="6.12"/><circle class="cls-15" cx="177.06" cy="888.31" r="6.12"/><circle class="cls-15" cx="275.05" cy="972.57" r="6.12"/><circle class="cls-15" cx="60.27" cy="909.05" r="6.12"/><circle class="cls-15" cx="180.94" cy="1009.62" r="6.12"/><circle class="cls-15" cx="148.08" cy="915.83" r="6.12"/><circle class="cls-15" cx="137.44" cy="772.97" r="6.12"/><circle class="cls-15" cx="343.1" cy="623.86" r="6.12"/><circle class="cls-15" cx="35.82" cy="592.44" r="6.12"/><circle class="cls-15" cx="92.11" cy="646.94" r="6.12"/><circle class="cls-15" cx="27.71" cy="655.55" r="6.12"/><circle class="cls-15" cx="54.59" cy="827.72" r="6.12"/><path class="cls-14" d="M.08 876.33Q27 869.84 54 864.43" transform="translate(.68 -37.12)"/></g></svg>