<?xml version="1.0" encoding="utf-8"?>
<!-- Generator: Adobe Illustrator 22.1.0, SVG Export Plug-In . SVG Version: 6.00 Build 0)  -->
<svg version="1.1" id="Layer_1" xmlns="http://www.w3.org/2000/svg" xmlns:xlink="http://www.w3.org/1999/xlink" x="0px" y="0px"
	 viewBox="0 0 267.5 44.9" style="enable-background:new 0 0 267.5 44.9;" xml:space="preserve">
<path d="M9.8,34.5l10-23.7c0.1-0.1,0.1-0.2,0.2-0.3c0.1,0,0.2-0.1,0.2-0.1h0.1c0,0,0.1,0,0.2,0.1c0.1,0,0.2,0.1,0.3,0.3l9.9,23.7
	c0,0.1,0.1,0.2,0.1,0.2c0,0.2-0.1,0.3-0.2,0.4c-0.1,0.1-0.2,0.1-0.3,0.1h-0.1c0,0-0.1,0-0.2-0.1c-0.1,0-0.1-0.1-0.2-0.3L27,28.2
	H13.5l-2.8,6.7c-0.1,0.2-0.1,0.3-0.2,0.3c-0.1,0-0.1,0.1-0.2,0.1h0c-0.1,0-0.3,0-0.4-0.1c-0.1-0.1-0.2-0.2-0.2-0.3
	C9.8,34.7,9.8,34.6,9.8,34.5z M20.3,12.1l-6.4,15.2h12.7L20.3,12.1z"/>
<path d="M61.3,13.9c-1.1-0.9-2.2-1.5-3.5-2c-1.2-0.5-2.6-0.7-4-0.7c-1.6,0-3.1,0.3-4.5,0.9c-1.4,0.6-2.6,1.4-3.7,2.5
	c-1.1,1.1-1.9,2.3-2.5,3.7c-0.6,1.4-0.9,2.9-0.9,4.5c0,1.6,0.3,3.1,0.9,4.5c0.6,1.4,1.4,2.7,2.5,3.7c1.1,1.1,2.3,1.9,3.7,2.5
	c1.4,0.6,2.9,0.9,4.5,0.9c1.4,0,2.7-0.2,4-0.7c1.2-0.5,2.4-1.1,3.5-1.9v-7.3c0-0.3,0.2-0.5,0.5-0.5c0.3,0,0.5,0.2,0.5,0.5v7.6
	c0,0.2-0.1,0.3-0.3,0.4c-1.1,0.9-2.4,1.6-3.7,2.1c-1.3,0.5-2.8,0.8-4.4,0.8c-1.8,0-3.4-0.3-4.9-1c-1.5-0.7-2.9-1.6-4-2.7
	c-1.1-1.1-2-2.5-2.7-4c-0.7-1.5-1-3.2-1-4.9c0-1.7,0.3-3.4,1-4.9c0.7-1.5,1.6-2.9,2.7-4.1c1.1-1.2,2.5-2.1,4-2.7
	c1.5-0.7,3.2-1,4.9-1c1.6,0,3,0.3,4.4,0.8c1.3,0.5,2.6,1.2,3.7,2.2c0.3,0.2,0.3,0.4,0.1,0.7C61.8,14.2,61.6,14.2,61.3,13.9z"/>
<path d="M77.3,11v14.5c0,1.3,0.2,2.5,0.7,3.6c0.5,1.1,1.1,2.1,2,2.9c0.8,0.8,1.8,1.5,2.9,2c1.1,0.5,2.3,0.7,3.6,0.7
	c1.3,0,2.5-0.2,3.6-0.7c1.1-0.5,2.1-1.1,2.9-2c0.8-0.8,1.5-1.8,2-2.9c0.5-1.1,0.7-2.3,0.7-3.6V11c0-0.4,0.2-0.5,0.5-0.5
	c0.3,0,0.5,0.2,0.5,0.5v14.7c0,1.4-0.3,2.7-0.8,3.9c-0.5,1.2-1.3,2.3-2.2,3.2c-0.9,0.9-2,1.6-3.2,2.1c-1.2,0.5-2.5,0.8-3.9,0.8
	c-1.4,0-2.7-0.3-3.9-0.8c-1.2-0.5-2.3-1.2-3.2-2.2c-0.9-0.9-1.6-2-2.2-3.2c-0.5-1.2-0.8-2.5-0.8-3.9V11c0-0.4,0.2-0.5,0.5-0.5
	C77.1,10.5,77.3,10.6,77.3,11z"/>
<path d="M109.2,34.5l10-23.7c0.1-0.1,0.1-0.2,0.2-0.3c0.1,0,0.2-0.1,0.2-0.1h0.1c0,0,0.1,0,0.2,0.1c0.1,0,0.2,0.1,0.3,0.3l9.9,23.7
	c0,0.1,0.1,0.2,0.1,0.2c0,0.2-0.1,0.3-0.2,0.4c-0.1,0.1-0.2,0.1-0.3,0.1h-0.1c0,0-0.1,0-0.2-0.1c-0.1,0-0.1-0.1-0.2-0.3l-2.8-6.7
	h-13.5l-2.8,6.7c-0.1,0.2-0.1,0.3-0.2,0.3s-0.1,0.1-0.2,0.1h0c-0.1,0-0.3,0-0.4-0.1s-0.2-0.2-0.2-0.3
	C109.2,34.7,109.2,34.6,109.2,34.5z M119.7,12.1l-6.4,15.2h12.7L119.7,12.1z"/>
<path d="M159.8,34.9l-3.9-9.3c-0.7,0.2-1.4,0.3-2.2,0.3h-9v8.9c0,0.3-0.2,0.5-0.5,0.5c-0.3,0-0.5-0.2-0.5-0.5V10.9
	c0-0.3,0.2-0.5,0.5-0.5h9.4c1.1,0,2.1,0.2,3,0.6c0.9,0.4,1.8,1,2.5,1.7c0.7,0.7,1.3,1.5,1.7,2.5c0.4,0.9,0.6,2,0.6,3
	c0,1.6-0.4,3-1.3,4.2c-0.8,1.2-1.9,2.2-3.3,2.8l3.9,9.4c0,0,0,0.1,0,0.1c0,0,0,0.1,0,0.1c0,0.1-0.1,0.2-0.2,0.3
	c-0.1,0.1-0.2,0.2-0.3,0.2h-0.1c0,0-0.1,0-0.2-0.1C159.9,35.1,159.8,35,159.8,34.9z M153.7,11.4h-9v13.5h9c0.9,0,1.8-0.2,2.6-0.5
	c0.8-0.3,1.5-0.8,2.1-1.4c0.6-0.6,1.1-1.3,1.4-2.1c0.3-0.8,0.5-1.7,0.5-2.6c0-1-0.2-1.9-0.5-2.7c-0.3-0.8-0.8-1.5-1.4-2.2
	c-0.6-0.6-1.3-1.1-2.1-1.5C155.5,11.6,154.6,11.4,153.7,11.4z"/>
<path d="M176.2,34.8V10.9c0-0.3,0.2-0.5,0.5-0.5h16.1c0.4,0,0.6,0.2,0.6,0.5v0c0,0.3-0.2,0.5-0.6,0.5h-15.6v10.5H190
	c0.2,0,0.3,0,0.4,0.1c0.1,0.1,0.2,0.2,0.2,0.4c0,0.2-0.1,0.3-0.2,0.4c-0.1,0.1-0.2,0.1-0.4,0.1h-12.8v11.4h16c0.4,0,0.5,0.2,0.5,0.5
	v0c0,0.3-0.2,0.5-0.5,0.5h-16.5C176.4,35.2,176.2,35.1,176.2,34.8z"/>
<path d="M222.9,34.3c0.3,0,0.5,0.2,0.5,0.5c0,0.3-0.2,0.5-0.5,0.5h-14.8c-0.2,0-0.3,0-0.4-0.1c0-0.1-0.1-0.2-0.1-0.3V10.9
	c0-0.3,0.2-0.5,0.5-0.5c0.3,0,0.5,0.2,0.5,0.5v23.4H222.9z"/>
<path d="M234.9,34.5l10-23.7c0.1-0.1,0.1-0.2,0.2-0.3c0.1,0,0.2-0.1,0.2-0.1h0.1c0,0,0.1,0,0.2,0.1c0.1,0,0.2,0.1,0.3,0.3l9.9,23.7
	c0,0.1,0.1,0.2,0.1,0.2c0,0.2-0.1,0.3-0.2,0.4c-0.1,0.1-0.2,0.1-0.3,0.1h-0.1c0,0-0.1,0-0.2-0.1c-0.1,0-0.1-0.1-0.2-0.3l-2.8-6.7
	h-13.5l-2.8,6.7c-0.1,0.2-0.1,0.3-0.2,0.3s-0.1,0.1-0.2,0.1h0c-0.1,0-0.3,0-0.4-0.1c-0.1-0.1-0.1-0.2-0.1-0.3
	C234.9,34.7,234.9,34.6,234.9,34.5z M245.3,12.1L239,27.3h12.7L245.3,12.1z"/>
</svg>
