<svg xmlns="http://www.w3.org/2000/svg" xmlns:xlink="http://www.w3.org/1999/xlink" viewBox="0 0 1921.39 1046.59"><defs><style>.cls-1,.cls-10,.cls-11,.cls-2,.cls-3,.cls-4,.cls-5,.cls-6,.cls-7,.cls-9{opacity:0.1;}.cls-1{fill:url(#linear-gradient);}.cls-2{fill:url(#linear-gradient-2);}.cls-3{fill:url(#linear-gradient-3);}.cls-4{fill:url(#linear-gradient-4);}.cls-5{fill:url(#linear-gradient-5);}.cls-6{fill:url(#linear-gradient-6);}.cls-7{fill:url(#linear-gradient-7);}.cls-14,.cls-15,.cls-8{opacity:0.05;}.cls-8{fill:url(#linear-gradient-8);}.cls-9{fill:url(#linear-gradient-9);}.cls-10{fill:url(#linear-gradient-10);}.cls-11{fill:url(#linear-gradient-11);}.cls-12,.cls-14{fill:none;stroke:#fff;stroke-miterlimit:10;stroke-width:0.5px;}.cls-12,.cls-13{opacity:0.3;}.cls-13,.cls-15{fill:#fff;}</style><linearGradient id="linear-gradient" x1="35.18" y1="362.88" x2="337.18" y2="362.88" gradientUnits="userSpaceOnUse"><stop offset="0" stop-color="#000615"/><stop offset="1" stop-color="#f2f2f2"/></linearGradient><linearGradient id="linear-gradient-2" x1="-408.75" y1="342.25" x2="-116.75" y2="342.25" gradientTransform="matrix(-0.09, -0.7, -0.39, 0.05, 385.58, 167.98)" gradientUnits="userSpaceOnUse"><stop offset="0" stop-color="#f2f2f2"/><stop offset="1" stop-color="#000615"/></linearGradient><linearGradient id="linear-gradient-3" x1="1203.66" y1="895.19" x2="1258.77" y2="743.79" gradientTransform="matrix(0.99, -0.16, 0.16, 0.99, -99.42, 161.88)" xlink:href="#linear-gradient"/><linearGradient id="linear-gradient-4" x1="163.65" y1="810.2" x2="290.1" y2="659.5" gradientTransform="matrix(0.86, 0.51, -0.51, 0.86, 384.49, -100.48)" gradientUnits="userSpaceOnUse"><stop offset="0" stop-color="#000615"/><stop offset="0.18" stop-color="#030918"/><stop offset="0.32" stop-color="#0c1220"/><stop offset="0.44" stop-color="#1c222f"/><stop offset="0.55" stop-color="#333844"/><stop offset="0.65" stop-color="#50545e"/><stop offset="0.75" stop-color="#74777f"/><stop offset="0.85" stop-color="#9fa1a6"/><stop offset="0.94" stop-color="#cfd0d2"/><stop offset="1" stop-color="#f2f2f2"/></linearGradient><linearGradient id="linear-gradient-5" x1="390.07" y1="289.04" x2="516.53" y2="138.34" gradientTransform="matrix(-1.45, -0.55, 0.33, -0.87, 1138.32, 1365.54)" gradientUnits="userSpaceOnUse"><stop offset="0" stop-color="#f2f2f2"/><stop offset="0.18" stop-color="#abadb1"/><stop offset="0.35" stop-color="#6e717a"/><stop offset="0.51" stop-color="#3f434e"/><stop offset="0.65" stop-color="#1c222f"/><stop offset="0.76" stop-color="#080d1c"/><stop offset="0.83" stop-color="#000615"/></linearGradient><linearGradient id="linear-gradient-6" x1="1156.36" y1="138.95" x2="1282.81" y2="-11.75" gradientTransform="matrix(-0.53, 1.76, -1.44, -0.43, 2401.45, -1564.02)" gradientUnits="userSpaceOnUse"><stop offset="0" stop-color="#f2f2f2"/><stop offset="0.27" stop-color="#a1a3a8"/><stop offset="0.53" stop-color="#5c6069"/><stop offset="0.75" stop-color="#2a2f3c"/><stop offset="0.91" stop-color="#0c1120"/><stop offset="1" stop-color="#000615"/></linearGradient><linearGradient id="linear-gradient-7" x1="416.93" y1="647.38" x2="466.95" y2="509.94" gradientTransform="matrix(0.77, 0, 0, 1.74, 1015.27, -198.81)" gradientUnits="userSpaceOnUse"><stop offset="0" stop-color="#000615"/><stop offset="0.16" stop-color="#030918"/><stop offset="0.29" stop-color="#0e1321"/><stop offset="0.41" stop-color="#1f2431"/><stop offset="0.53" stop-color="#373c48"/><stop offset="0.65" stop-color="#575b64"/><stop offset="0.76" stop-color="#7e8188"/><stop offset="0.86" stop-color="#acaeb2"/><stop offset="0.97" stop-color="#e0e0e1"/><stop offset="1" stop-color="#f2f2f2"/></linearGradient><linearGradient id="linear-gradient-8" x1="542.05" y1="1648.2" x2="597.15" y2="1496.8" gradientTransform="matrix(0.07, -1.19, 1.28, 0.08, -310.91, 672.04)" gradientUnits="userSpaceOnUse"><stop offset="0" stop-color="#000615"/><stop offset="0.23" stop-color="#030817"/><stop offset="0.37" stop-color="#0b111f"/><stop offset="0.48" stop-color="#191f2c"/><stop offset="0.58" stop-color="#2e323f"/><stop offset="0.68" stop-color="#484c57"/><stop offset="0.76" stop-color="#686c74"/><stop offset="0.84" stop-color="#8f9197"/><stop offset="0.92" stop-color="#bbbdc0"/><stop offset="0.99" stop-color="#ededed"/><stop offset="1" stop-color="#f2f2f2"/></linearGradient><linearGradient id="linear-gradient-9" x1="-635.53" y1="1777.09" x2="-333.53" y2="1777.09" gradientTransform="matrix(0.35, 0.57, -0.49, 0.3, 2647.73, 665.85)" gradientUnits="userSpaceOnUse"><stop offset="0" stop-color="#f2f2f2"/><stop offset="0.18" stop-color="#b7b8bc"/><stop offset="0.4" stop-color="#777a81"/><stop offset="0.59" stop-color="#434853"/><stop offset="0.76" stop-color="#1f2431"/><stop offset="0.9" stop-color="#080e1d"/><stop offset="0.99" stop-color="#000615"/><stop offset="1" stop-color="#040a19"/><stop offset="1" stop-color="#080e1c"/></linearGradient><linearGradient id="linear-gradient-10" x1="730.33" y1="-1957.2" x2="1032.33" y2="-1957.2" gradientTransform="matrix(-0.06, -0.74, 0.7, -0.06, 1605.07, 1311.53)" gradientUnits="userSpaceOnUse"><stop offset="0" stop-color="#f2f2f2"/><stop offset="0.06" stop-color="#cdced0"/><stop offset="0.15" stop-color="#9d9fa5"/><stop offset="0.24" stop-color="#73767e"/><stop offset="0.34" stop-color="#50545e"/><stop offset="0.44" stop-color="#333743"/><stop offset="0.55" stop-color="#1c212f"/><stop offset="0.67" stop-color="#0c1220"/><stop offset="0.8" stop-color="#030918"/><stop offset="0.99" stop-color="#000615"/><stop offset="1" stop-color="#040a19"/><stop offset="1" stop-color="#080e1c"/></linearGradient><linearGradient id="linear-gradient-11" x1="323.36" y1="-704.77" x2="625.36" y2="-704.77" gradientTransform="matrix(0.57, -0.57, 0.5, 0.51, 482.2, 1492.46)" gradientUnits="userSpaceOnUse"><stop offset="0" stop-color="#080e1c"/><stop offset="0.12" stop-color="#0c1220"/><stop offset="0.25" stop-color="#1a1f2c"/><stop offset="0.38" stop-color="#2f3440"/><stop offset="0.52" stop-color="#4e525c"/><stop offset="0.66" stop-color="#757980"/><stop offset="0.81" stop-color="#a6a8ac"/><stop offset="0.95" stop-color="#dededf"/><stop offset="1" stop-color="#f2f2f2"/></linearGradient></defs><title>Funo-Andre</title><g id="Layer_6" data-name="Layer 6"><polygon class="cls-1" points="35.18 333.38 337.18 219.38 136.18 506.38 35.18 333.38"/><polygon class="cls-2" points="196.26 412.43 188.91 276.82 374.16 458.77 196.26 412.43"/><polygon class="cls-3" points="1169.84 678.47 1204.42 849.14 1343.13 767.04 1169.84 678.47"/><polygon class="cls-4" points="266.58 533.31 136.81 759.82 314.76 696.18 266.58 533.31"/><polygon class="cls-5" points="510.68 1044.88 589.2 816.1 366.86 876.36 510.68 1044.88"/><polygon class="cls-6" points="1853.96 605.02 1475.32 500.69 1622.16 774.97 1853.96 605.02"/><polygon class="cls-7" points="1307.78 634.93 1289.28 891.34 1429.05 835.57 1307.78 634.93"/><polygon class="cls-8" points="1597.37 177.69 1820.3 182.48 1755.36 0 1597.37 177.69"/><polygon class="cls-9" points="1576.98 825.26 1737.19 962.65 1527.83 934.02 1576.98 825.26"/><polygon class="cls-10" points="170.78 894.57 71.94 679.4 285.21 809.85 170.78 894.57"/><polygon class="cls-11" points="296.05 936.32 410.66 707.51 440.9 967.1 296.05 936.32"/></g><g id="Teia"><line class="cls-12" x1="1921.18" y1="997.38" x2="1821.86" y2="973.27"/><line class="cls-12" x1="1921.18" y1="886.38" x2="1821.86" y2="973.27"/><line class="cls-12" x1="1920.18" y1="859.38" x2="1824.73" y2="747.58"/><line class="cls-12" x1="1739.73" y1="817.64" x2="1824.73" y2="747.58"/><line class="cls-12" x1="1781.18" y1="1045.38" x2="1821.86" y2="973.27"/><line class="cls-12" x1="1610.52" y1="809.6" x2="1739.73" y2="817.64"/><line class="cls-12" x1="1720.78" y1="682.11" x2="1739.73" y2="817.64"/><line class="cls-12" x1="1610.52" y1="809.6" x2="1720.78" y2="682.11"/><line class="cls-12" x1="1747.77" y1="998.54" x2="1682.3" y2="987.06"/><line class="cls-12" x1="1717.91" y1="922.74" x2="1747.77" y2="998.54"/><line class="cls-12" x1="1739.73" y1="817.64" x2="1717.91" y2="922.74"/><circle class="cls-13" cx="1720.64" cy="682.25" r="4.45"/><circle class="cls-13" cx="1824.58" cy="747.72" r="4.45"/><circle class="cls-13" cx="1740.16" cy="816.64" r="4.45"/><circle class="cls-13" cx="1610.38" cy="809.75" r="4.45"/><circle class="cls-13" cx="1718.34" cy="922.88" r="4.45"/><circle class="cls-13" cx="1682.16" cy="987.2" r="4.45"/><circle class="cls-13" cx="1747.63" cy="998.68" r="4.45"/><circle class="cls-13" cx="1821.71" cy="973.42" r="4.45"/><line class="cls-12" x1="1821.57" y1="973.56" x2="1839.37" y2="852.96"/><line class="cls-12" x1="1739.45" y1="817.93" x2="1839.37" y2="852.96"/><circle class="cls-13" cx="1839.51" cy="854.54" r="4.45"/><line class="cls-12" x1="1682.02" y1="986.19" x2="1614.83" y2="935.66"/><line class="cls-12" x1="1556.25" y1="993.08" x2="1614.83" y2="935.66"/><line class="cls-12" x1="1565.44" y1="870.19" x2="1614.83" y2="935.66"/><line class="cls-12" x1="1548.5" y1="788.35" x2="1565.15" y2="870.48"/><circle class="cls-13" cx="1565.01" cy="870.05" r="4.45"/><circle class="cls-13" cx="1556.97" cy="991.79" r="4.45"/><circle class="cls-13" cx="1614.97" cy="935.51" r="4.45"/><circle class="cls-13" cx="1548.35" cy="787.35" r="4.45"/><line class="cls-12" x1="1610.52" y1="809.6" x2="1686.32" y2="939.96"/><circle class="cls-13" cx="1686.76" cy="940.68" r="4.45"/><line class="cls-12" x1="1463.79" y1="918.43" x2="1556.25" y2="991.94"/><line class="cls-12" x1="1463.5" y1="918.72" x2="1487.62" y2="996.82"/><line class="cls-12" x1="1555.96" y1="992.22" x2="1633.49" y2="1011.75"/><line class="cls-12" x1="1615.11" y1="939.96" x2="1633.49" y2="1011.75"/><line class="cls-12" x1="1556.54" y1="992.22" x2="1533.18" y2="1046.38"/><circle class="cls-13" cx="1633.92" cy="1013.62" r="4.45"/><circle class="cls-13" cx="1463.36" cy="918.28" r="4.45"/><circle class="cls-13" cx="1487.48" cy="996.39" r="4.45"/><line class="cls-12" x1="1633.78" y1="1013.76" x2="1577.18" y2="1045.38"/><line class="cls-12" x1="1682.02" y1="991.94" x2="1676.18" y2="1046.38"/><line class="cls-12" x1="1463.56" y1="918.61" x2="1521.95" y2="721.46"/><line class="cls-12" x1="1475.41" y1="682.54" x2="1521.95" y2="721.46"/><line class="cls-12" x1="1533.79" y1="645.31" x2="1521.95" y2="721.46"/><line class="cls-12" x1="1475.41" y1="682.54" x2="1533.79" y2="645.31"/><line class="cls-12" x1="1720.79" y1="681.69" x2="1587.95" y2="658.84"/><line class="cls-12" x1="1556.64" y1="729.92" x2="1587.95" y2="658.84"/><circle class="cls-13" cx="1475.25" cy="682.25" r="4.45"/><circle class="cls-13" cx="1522.64" cy="722.02" r="4.45"/><circle class="cls-13" cx="1533.64" cy="645.02" r="4.45"/><circle class="cls-13" cx="1588.64" cy="657.72" r="4.45"/><circle class="cls-13" cx="1558.18" cy="726.25" r="4.45"/><line class="cls-12" x1="1614.18" y1="702" x2="1557.49" y2="726.54"/><circle class="cls-13" cx="1610.64" cy="701.72" r="4.45"/><line class="cls-12" x1="1720.37" y1="682.11" x2="1798.22" y2="541.65"/><line class="cls-12" x1="1777.06" y1="686.34" x2="1826.14" y2="745.57"/><line class="cls-12" x1="1880.29" y1="628.81" x2="1777.06" y2="686.34"/><line class="cls-12" x1="1893.83" y1="730.34" x2="1880.29" y2="628.81"/><line class="cls-12" x1="1681.87" y1="505.69" x2="1797.79" y2="541.23"/><line class="cls-12" x1="1691.18" y1="586.07" x2="1681.87" y2="505.69"/><line class="cls-12" x1="1610.79" y1="579.31" x2="1681.87" y2="505.69"/><line class="cls-12" x1="1691.18" y1="586.07" x2="1610.79" y2="579.31"/><circle class="cls-13" cx="1691.87" cy="586.64" r="4.45"/><circle class="cls-13" cx="1610.64" cy="579.02" r="4.45"/><circle class="cls-13" cx="1682.56" cy="506.26" r="4.45"/><circle class="cls-13" cx="1798.48" cy="541.79" r="4.45"/><circle class="cls-13" cx="1880.56" cy="628.95" r="4.45"/><circle class="cls-13" cx="1777.33" cy="686.49" r="4.45"/><circle class="cls-13" cx="1894.1" cy="732.18" r="4.45"/><line class="cls-12" x1="1491.91" y1="822.57" x2="1397.14" y2="773.5"/><line class="cls-12" x1="1410.68" y1="865.73" x2="1397.14" y2="773.5"/><line class="cls-12" x1="1327.76" y1="727.81" x2="1397.14" y2="773.5"/><line class="cls-12" x1="1410.26" y1="865.3" x2="1345.95" y2="892.38"/><circle class="cls-13" cx="1328.02" cy="727.95" r="4.45"/><circle class="cls-13" cx="1397.41" cy="773.64" r="4.45"/><circle class="cls-13" cx="1490.48" cy="821.87" r="4.45"/><circle class="cls-13" cx="1410.1" cy="864.18" r="4.45"/><circle class="cls-13" cx="1344.1" cy="892.95" r="4.45"/><line class="cls-12" x1="1765.64" y1="902.54" x2="1821.49" y2="973.61"/><circle class="cls-13" cx="1765.48" cy="903.1" r="4.45"/><line class="cls-12" x1="1404.33" y1="1003.23" x2="1366.26" y2="964.3"/><line class="cls-12" x1="1410.26" y1="865.3" x2="1366.26" y2="964.3"/><circle class="cls-13" cx="1366.95" cy="964.02" r="4.45"/><circle class="cls-13" cx="1404.18" cy="1002.95" r="4.45"/><line class="cls-12" x1="1856.18" y1="515.84" x2="1880.72" y2="624.15"/><line class="cls-12" x1="1864.64" y1="467.61" x2="1856.18" y2="515.84"/><line class="cls-12" x1="1908.64" y1="483.69" x2="1856.18" y2="515.84"/><line class="cls-12" x1="1864.64" y1="467.61" x2="1908.64" y2="483.69"/><circle class="cls-13" cx="1856.02" cy="515.56" r="4.45"/><circle class="cls-13" cx="1864.48" cy="467.33" r="4.45"/><circle class="cls-13" cx="1907.64" cy="483.41" r="4.45"/></g><g id="Layer_3" data-name="Layer 3"><line class="cls-14" x1="1240.18" y1="1045.38" x2="1229.67" y2="868.11"/><line class="cls-14" x1="1358.84" y1="823.46" x2="1230.27" y2="868.7"/><line class="cls-14" x1="1354.08" y1="706.79" x2="1358.84" y2="823.46"/><line class="cls-14" x1="1233.84" y1="603.22" x2="1354.08" y2="706.79"/><line class="cls-14" x1="1506.47" y1="632.98" x2="1354.08" y2="706.79"/><line class="cls-14" x1="1455.28" y1="727.03" x2="1430.27" y2="669.89"/><line class="cls-14" x1="1410.04" y1="756.79" x2="1455.28" y2="727.03"/><line class="cls-14" x1="1492.18" y1="538.93" x2="1506.47" y2="632.98"/><line class="cls-14" x1="1560.04" y1="610.36" x2="1506.47" y2="632.98"/><line class="cls-14" x1="1492.18" y1="538.93" x2="1560.04" y2="610.36"/><line class="cls-14" x1="1612.42" y1="666.31" x2="1560.04" y2="610.36"/><line class="cls-14" x1="1683.86" y1="594.88" x2="1612.42" y2="666.31"/><line class="cls-14" x1="1481.18" y1="1045.38" x2="1415.99" y2="902.04"/><line class="cls-14" x1="1360.03" y1="886.56" x2="1415.99" y2="902.04"/><line class="cls-14" x1="1404.08" y1="837.75" x2="1417.18" y2="905.61"/><line class="cls-14" x1="1360.03" y1="886.56" x2="1404.08" y2="837.75"/><line class="cls-14" x1="1486.23" y1="803.22" x2="1404.08" y2="837.75"/><line class="cls-14" x1="1519.56" y1="865.13" x2="1486.23" y2="803.22"/><line class="cls-14" x1="1563.61" y1="755.6" x2="1519.56" y2="865.13"/><line class="cls-14" x1="1602.9" y1="804.41" x2="1563.61" y2="753.22"/><line class="cls-14" x1="1754.1" y1="835.37" x2="1921.18" y2="900.38"/><line class="cls-14" x1="1822.18" y1="1045.38" x2="1921.18" y2="918.38"/><line class="cls-14" x1="1787.43" y1="981.8" x2="1807.18" y2="1045.38"/><line class="cls-14" x1="1749.33" y1="703.22" x2="1754.1" y2="835.37"/><line class="cls-14" x1="1770.76" y1="666.31" x2="1749.33" y2="703.22"/><line class="cls-14" x1="1789.81" y1="698.46" x2="1749.33" y2="703.22"/><line class="cls-14" x1="1770.76" y1="666.31" x2="1789.81" y2="698.46"/><line class="cls-14" x1="1921.18" y1="662.38" x2="1843.39" y2="786.56"/><line class="cls-14" x1="1838.62" y1="622.26" x2="1843.39" y2="786.56"/><line class="cls-14" x1="1776.72" y1="566.31" x2="1838.62" y2="622.26"/><line class="cls-14" x1="1776.72" y1="438.92" x2="1776.72" y2="566.31"/><line class="cls-14" x1="1689.81" y1="368.68" x2="1776.72" y2="438.92"/><line class="cls-14" x1="1631.47" y1="335.35" x2="1689.81" y2="368.68"/><line class="cls-14" x1="1641" y1="416.3" x2="1689.81" y2="368.68"/><line class="cls-14" x1="1631.47" y1="335.35" x2="1641" y2="416.3"/><line class="cls-14" x1="1526.71" y1="446.07" x2="1492.18" y2="538.93"/><line class="cls-14" x1="1417.18" y1="399.64" x2="1526.71" y2="446.07"/><line class="cls-14" x1="1155.26" y1="588.93" x2="1233.84" y2="603.22"/><line class="cls-14" x1="1233.84" y1="574.64" x2="1233.84" y2="603.22"/><circle class="cls-15" cx="1155.05" cy="588.53" r="6.26"/><circle class="cls-15" cx="1233.62" cy="574.25" r="6.26"/><circle class="cls-15" cx="1233.62" cy="602.82" r="6.26"/><circle class="cls-15" cx="1325.29" cy="681.4" r="6.26"/><circle class="cls-15" cx="1353.86" cy="705.21" r="6.26"/><circle class="cls-15" cx="1526.49" cy="448.05" r="6.26"/><circle class="cls-15" cx="1418.15" cy="400.43" r="6.26"/><circle class="cls-15" cx="1491.96" cy="539.72" r="6.26"/><circle class="cls-15" cx="1506.25" cy="632.58" r="6.26"/><circle class="cls-15" cx="1559.82" cy="609.96" r="6.26"/><circle class="cls-15" cx="1612.21" cy="664.73" r="6.26"/><circle class="cls-15" cx="1455.06" cy="727.83" r="6.26"/><circle class="cls-15" cx="1408.63" cy="755.21" r="6.26"/><circle class="cls-15" cx="1403.86" cy="839.73" r="6.26"/><circle class="cls-15" cx="1359.82" cy="886.17" r="6.26"/><circle class="cls-15" cx="1358.63" cy="823.07" r="6.26"/><circle class="cls-15" cx="1230.05" cy="868.31" r="6.26"/><circle class="cls-15" cx="1519.35" cy="864.74" r="6.26"/><circle class="cls-15" cx="1487.2" cy="804.02" r="6.26"/><circle class="cls-15" cx="1415.77" cy="901.64" r="6.26"/><circle class="cls-15" cx="1787.21" cy="982.6" r="6.26"/><circle class="cls-15" cx="1602.68" cy="804.02" r="6.26"/><circle class="cls-15" cx="1563.4" cy="755.21" r="6.26"/><circle class="cls-15" cx="1770.55" cy="665.92" r="6.26"/><circle class="cls-15" cx="1747.93" cy="702.82" r="6.26"/><circle class="cls-15" cx="1753.88" cy="834.97" r="6.26"/><circle class="cls-15" cx="1838.41" cy="621.87" r="6.26"/><circle class="cls-15" cx="1843.17" cy="782.59" r="6.26"/><circle class="cls-15" cx="1788.4" cy="696.87" r="6.26"/><circle class="cls-15" cx="1680.07" cy="598.06" r="6.26"/><circle class="cls-15" cx="1430.06" cy="669.49" r="6.26"/><circle class="cls-15" cx="1776.5" cy="438.53" r="6.26"/><circle class="cls-15" cx="1632.45" cy="336.14" r="6.26"/><circle class="cls-15" cx="1640.78" cy="415.91" r="6.26"/><circle class="cls-15" cx="1688.4" cy="369.48" r="6.26"/><circle class="cls-15" cx="1776.5" cy="565.91" r="6.26"/><line class="cls-14" x1="1849.93" y1="505" x2="1776.12" y2="565.72"/><circle class="cls-15" cx="1851.5" cy="502.82" r="6.26"/></g><g id="Layer_4" data-name="Layer 4"><line class="cls-12" x1="446.18" y1="1046.38" x2="494.59" y2="940.8"/><path class="cls-12" d="M66,1083.38C64,1074,61,1066,60,1057c-1-15-8-29-8.44-44.12" transform="translate(0.68 -37.12)"/><line class="cls-12" x1="159.82" y1="952.13" x2="52.24" y2="975.76"/><line class="cls-12" x1="233.24" y1="845.5" x2="159.82" y2="952.13"/><line class="cls-12" x1="64.88" y1="853.57" x2="159.82" y2="952.13"/><line class="cls-12" x1="233.24" y1="845.5" x2="64.88" y2="853.57"/><line class="cls-12" x1="310.18" y1="1046.38" x2="328.56" y2="1011.5"/><line class="cls-12" x1="255.98" y1="999.82" x2="283.18" y2="1046.38"/><line class="cls-12" x1="159.82" y1="952.13" x2="255.98" y2="999.82"/><circle class="cls-13" cx="65.08" cy="853.55" r="4.45"/><circle class="cls-13" cx="52.44" cy="975.74" r="4.45"/><circle class="cls-13" cx="158.76" cy="951.85" r="4.45"/><circle class="cls-13" cx="233.44" cy="845.47" r="4.45"/><circle class="cls-13" cx="255.82" cy="1000.25" r="4.45"/><circle class="cls-13" cx="328.76" cy="1011.48" r="4.45"/><circle class="cls-13" cx="497.79" cy="937.77" r="4.45"/><line class="cls-12" x1="160.22" y1="952.08" x2="128.18" y2="1046.38"/><line class="cls-12" x1="328.06" y1="1010.75" x2="329.77" y2="926.69"/><line class="cls-12" x1="411.1" y1="916.04" x2="329.77" y2="926.69"/><line class="cls-12" x1="308.74" y1="847.42" x2="329.77" y2="926.69"/><line class="cls-12" x1="254.8" y1="783.58" x2="309.14" y2="847.37"/><circle class="cls-13" cx="308.89" cy="846.99" r="4.45"/><circle class="cls-13" cx="409.64" cy="915.81" r="4.45"/><circle class="cls-13" cx="329.56" cy="926.71" r="4.45"/><circle class="cls-13" cx="254.1" cy="782.85" r="4.45"/><line class="cls-12" x1="233.24" y1="845.5" x2="289.03" y2="985.6"/><circle class="cls-13" cx="289.33" cy="986.38" r="4.45"/><line class="cls-12" x1="409.43" y1="797.22" x2="410.2" y2="915.33"/><line class="cls-12" x1="409.83" y1="797.17" x2="456.4" y2="864.35"/><line class="cls-12" x1="410.6" y1="915.28" x2="378.12" y2="988.34"/><line class="cls-12" x1="332.98" y1="929.57" x2="378.12" y2="988.34"/><line class="cls-12" x1="410.25" y1="915.74" x2="496.13" y2="939.31"/><circle class="cls-13" cx="379.32" cy="989.83" r="4.45"/><circle class="cls-13" cx="409.58" cy="796.79" r="4.45"/><circle class="cls-13" cx="456.15" cy="863.97" r="4.45"/><line class="cls-12" x1="379.52" y1="989.8" x2="496.53" y2="939.26"/><line class="cls-12" x1="332.58" y1="1014.29" x2="384.18" y2="1046.38"/><line class="cls-12" x1="409.71" y1="797.15" x2="218.56" y2="721.41"/><line class="cls-12" x1="216.65" y1="660.77" x2="218.56" y2="721.41"/><line class="cls-12" x1="151.33" y1="683.73" x2="218.56" y2="721.41"/><line class="cls-12" x1="216.65" y1="660.77" x2="151.33" y2="683.73"/><line class="cls-12" x1="64.54" y1="853.32" x2="128.55" y2="734.69"/><line class="cls-12" x1="203.8" y1="753.93" x2="128.55" y2="734.69"/><circle class="cls-13" cx="216.53" cy="660.47" r="4.45"/><circle class="cls-13" cx="218.57" cy="722.3" r="4.45"/><circle class="cls-13" cx="151.2" cy="683.43" r="4.45"/><circle class="cls-13" cx="127.24" cy="734.54" r="4.45"/><circle class="cls-13" cx="199.97" cy="752.87" r="4.45"/><line class="cls-12" x1="146.32" y1="781.97" x2="200.62" y2="752.5"/><circle class="cls-13" cx="148.28" cy="779.01" r="4.45"/><path class="cls-12" d="M64.46,890.37C43,887,22,883,1.47,880.26" transform="translate(0.68 -37.12)"/><line class="cls-12" x1="33.47" y1="900.46" x2="49.79" y2="975.63"/><path class="cls-12" d="M1.93,950.53l29-12.18,1.84-.77" transform="translate(0.68 -37.12)"/><path class="cls-12" d="M6.91,808.12-.5,800.79" transform="translate(0.68 -37.12)"/><path class="cls-12" d="M51.2,740.7C34,742,17,745-.22,746" transform="translate(0.68 -37.12)"/><line class="cls-12" x1="7.59" y1="771" x2="51.87" y2="703.58"/><circle class="cls-13" cx="7.6" cy="771.9" r="4.45"/><circle class="cls-13" cx="51.75" cy="703.28" r="4.45"/><circle class="cls-13" cx="33.42" cy="900.76" r="4.45"/><line class="cls-12" x1="316.65" y1="760.18" x2="336.53" y2="655.33"/><line class="cls-12" x1="400.74" y1="722.9" x2="336.53" y2="655.33"/><line class="cls-12" x1="343.4" y1="572.53" x2="336.53" y2="655.33"/><line class="cls-12" x1="400.67" y1="722.31" x2="461.67" y2="688.42"/><circle class="cls-13" cx="343.35" cy="572.83" r="4.45"/><circle class="cls-13" cx="336.48" cy="655.62" r="4.45"/><circle class="cls-13" cx="316.98" cy="758.63" r="4.45"/><circle class="cls-13" cx="399.88" cy="721.49" r="4.45"/><circle class="cls-13" cx="463.25" cy="687.32" r="4.45"/><path class="cls-12" d="M210,1062c.89,7.19,3.7,13.88,5.05,21" transform="translate(0.68 -37.12)"/><circle class="cls-13" cx="211.17" cy="1025.13" r="4.45"/><line class="cls-12" x1="512.85" y1="802.77" x2="505.72" y2="748.79"/><line class="cls-12" x1="400.67" y1="722.31" x2="505.72" y2="748.79"/><circle class="cls-13" cx="505.07" cy="749.16" r="4.45"/><circle class="cls-13" cx="512.72" cy="802.48" r="4.45"/><line class="cls-12" x1="150.49" y1="577.48" x2="220.56" y2="663.64"/><line class="cls-12" x1="107.32" y1="554.37" x2="150.49" y2="577.48"/><line class="cls-12" x1="92.81" y1="598.92" x2="150.49" y2="577.48"/><line class="cls-12" x1="107.32" y1="554.37" x2="92.81" y2="598.92"/><circle class="cls-13" cx="150.37" cy="577.19" r="4.45"/><circle class="cls-13" cx="107.2" cy="554.08" r="4.45"/><circle class="cls-13" cx="93.21" cy="597.95" r="4.45"/></g><g id="Layer_5" data-name="Layer 5"><line class="cls-14" x1="504.4" y1="661.96" x2="616.71" y2="590.41"/><line class="cls-14" x1="417.59" y1="587.95" x2="504.4" y2="661.96"/><line class="cls-14" x1="410.47" y1="433.07" x2="417.59" y2="587.95"/><line class="cls-14" x1="268.96" y1="660.59" x2="417.59" y2="587.95"/><line class="cls-14" x1="372.13" y1="677.94" x2="343.27" y2="624.27"/><line class="cls-14" x1="422.28" y1="661.12" x2="372.13" y2="677.94"/><line class="cls-14" x1="205.28" y1="592.89" x2="268.96" y2="660.59"/><line class="cls-14" x1="219.27" y1="688.13" x2="268.96" y2="660.59"/><line class="cls-14" x1="205.28" y1="592.89" x2="219.27" y2="688.13"/><line class="cls-14" x1="230.7" y1="762.13" x2="219.27" y2="688.13"/><line class="cls-14" x1="132.72" y1="773.97" x2="230.7" y2="762.13"/><line class="cls-14" x1="610.3" y1="907.64" x2="530.34" y2="753.27"/><line class="cls-14" x1="552.19" y1="700.93" x2="530.34" y2="753.27"/><line class="cls-14" x1="488.1" y1="705.35" x2="532.37" y2="756.34"/><line class="cls-14" x1="552.19" y1="700.93" x2="488.1" y2="705.35"/><line class="cls-14" x1="412.03" y1="747.68" x2="488.1" y2="705.35"/><line class="cls-14" x1="439.52" y1="810.63" x2="412.03" y2="747.68"/><line class="cls-14" x1="328.77" y1="778.45" x2="439.52" y2="810.63"/><line class="cls-14" x1="342.6" y1="838.08" x2="326.94" y2="777.02"/><path class="cls-14" d="M274.55,1010.09C267,1033.49,261,1058,253,1083" transform="translate(0.68 -37.12)"/><line class="cls-14" x1="176.51" y1="889.63" x2="275.22" y2="972.97"/><line class="cls-14" x1="135.22" y1="883.85" x2="176.51" y2="889.63"/><line class="cls-14" x1="148.45" y1="917.87" x2="176.51" y2="889.63"/><line class="cls-14" x1="135.22" y1="883.85" x2="148.45" y2="917.87"/><line class="cls-14" x1="0.18" y1="992.38" x2="183.86" y2="1012.18"/><line class="cls-14" x1="60.44" y1="909.45" x2="183.86" y2="1012.18"/><line class="cls-14" x1="54.76" y1="828.13" x2="60.44" y2="909.45"/><path class="cls-14" d="M-.37,822.53C19,836,35,852,54.08,865.24" transform="translate(0.68 -37.12)"/><line class="cls-14" x1="35.8" y1="591.21" x2="26.25" y2="656.15"/><line class="cls-14" x1="92.29" y1="647.35" x2="26.25" y2="656.15"/><line class="cls-14" x1="35.8" y1="591.21" x2="92.29" y2="647.35"/><line class="cls-14" x1="113.08" y1="563.44" x2="205.28" y2="592.89"/><line class="cls-14" x1="143.43" y1="451.25" x2="113.08" y2="563.44"/><line class="cls-14" x1="446.87" y1="364.05" x2="410.47" y2="433.07"/><line class="cls-14" x1="388.51" y1="415.84" x2="410.47" y2="433.07"/><circle class="cls-15" cx="446.7" cy="363.65" r="6.12"/><circle class="cls-15" cx="388.34" cy="415.43" r="6.12"/><circle class="cls-15" cx="410.3" cy="432.66" r="6.12"/><circle class="cls-15" cx="415.42" cy="550.51" r="6.12"/><circle class="cls-15" cx="416.5" cy="586.83" r="6.12"/><circle class="cls-15" cx="114.74" cy="564.47" r="6.12"/><circle class="cls-15" cx="143.46" cy="452.48" r="6.12"/><circle class="cls-15" cx="206.02" cy="593.2" r="6.12"/><circle class="cls-15" cx="268.79" cy="660.18" r="6.12"/><circle class="cls-15" cx="219.1" cy="687.72" r="6.12"/><circle class="cls-15" cx="229.61" cy="761.01" r="6.12"/><circle class="cls-15" cx="372.87" cy="678.26" r="6.12"/><circle class="cls-15" cx="421.91" cy="659.08" r="6.12"/><circle class="cls-15" cx="489.76" cy="706.38" r="6.12"/><circle class="cls-15" cx="552.01" cy="700.52" r="6.12"/><circle class="cls-15" cx="504.23" cy="661.56" r="6.12"/><circle class="cls-15" cx="616.53" cy="590" r="6.12"/><circle class="cls-15" cx="439.35" cy="810.23" r="6.12"/><circle class="cls-15" cx="412.06" cy="748.91" r="6.12"/><circle class="cls-15" cx="530.17" cy="752.86" r="6.12"/><circle class="cls-15" cx="616.56" cy="907.57" r="6.12"/><circle class="cls-15" cx="342.42" cy="837.68" r="6.12"/><circle class="cls-15" cx="328.59" cy="778.05" r="6.12"/><circle class="cls-15" cx="135.05" cy="883.44" r="6.12"/><circle class="cls-15" cx="177.06" cy="888.31" r="6.12"/><circle class="cls-15" cx="275.05" cy="972.57" r="6.12"/><circle class="cls-15" cx="60.27" cy="909.05" r="6.12"/><circle class="cls-15" cx="180.94" cy="1009.62" r="6.12"/><circle class="cls-15" cx="148.08" cy="915.83" r="6.12"/><circle class="cls-15" cx="137.44" cy="772.97" r="6.12"/><circle class="cls-15" cx="343.1" cy="623.86" r="6.12"/><circle class="cls-15" cx="35.82" cy="592.44" r="6.12"/><circle class="cls-15" cx="92.11" cy="646.94" r="6.12"/><circle class="cls-15" cx="27.71" cy="655.55" r="6.12"/><circle class="cls-15" cx="54.59" cy="827.72" r="6.12"/><path class="cls-14" d="M.08,876.33Q27,869.84,54,864.43" transform="translate(0.68 -37.12)"/></g></svg>